Coordinates
version=1
nRows=4
nColumns=63
inDegrees=yes

Units are S.I. units (second, meters, Newtons, ...)
If the header above contains a line with 'inDegrees', this indicates whether rotational values are in degrees (yes) or radians (no).

endheader
time	pelvis_tilt	pelvis_list	pelvis_rotation	pelvis_tx	pelvis_ty	pelvis_tz	hip_flexion_r	hip_adduction_r	hip_rotation_r	knee_angle_r	knee_angle_r_beta	ankle_angle_r	subtalar_angle_r	mtp_angle_r	hip_flexion_l	hip_adduction_l	hip_rotation_l	knee_angle_l	knee_angle_l_beta	ankle_angle_l	subtalar_angle_l	mtp_angle_l	L5_S1_Flex_Ext	L5_S1_Lat_Bending	L5_S1_axial_rotation	L4_L5_Flex_Ext	L4_L5_Lat_Bending	L4_L5_axial_rotation	L3_L4_Flex_Ext	L3_L4_Lat_Bending	L3_L4_axial_rotation	L2_L3_Flex_Ext	L2_L3_Lat_Bending	L2_L3_axial_rotation	L1_L2_Flex_Ext	L1_L2_Lat_Bending	L1_L2_axial_rotation	L1_T12_Flex_Ext	L1_T12_Lat_Bending	L1_T12_axial_rotation	Abs_r3	Abs_r2	Abs_r1	Abs_t1	Abs_t2	neck_flexion	neck_bending	neck_rotation	arm_flex_r	arm_add_r	arm_rot_r	elbow_flex_r	pro_sup_r	wrist_flex_r	wrist_dev_r	arm_flex_l	arm_add_l	arm_rot_l	elbow_flex_l	pro_sup_l	wrist_flex_l	wrist_dev_l
      3.45614035	     -2.42274687	     -4.32993288	     94.41787750	      0.14448107	      0.93484735	      0.66943931	     -1.16464215	     -2.91137715	    -16.46172075	      9.25106752	      0.16146159	     24.74001751	     18.58010362	      0.00000000	      1.99253970	      2.17331216	      4.60627605	     12.86775304	      0.22458466	     19.50668390	    -13.87850737	      0.00000000	     -0.19440381	      0.00375794	     -0.52563152	     -0.36102732	      0.00499805	     -0.55848349	     -0.31938603	      0.00913704	     -0.55848349	     -0.22218412	      0.00913704	     -0.45992758	     -0.18052338	      0.00766318	     -0.42707561	     -0.11108234	      0.00582104	     -0.39422364	     -1.38860701	      0.04251052	     -2.92340484	      0.00000000	      0.00000000	     15.17420003	     10.10353530	      0.56381259	     35.45959266	     -4.60334176	    147.56535056	      0.51587556	      0.80177730	     25.26235060	    -23.81806327	     37.77465987	     -1.02798829	    155.69101644	      0.21116070	      1.99043505	    -28.40168877	    -23.50306150
      3.47368421	     -2.17221933	     -4.58851703	     94.27461557	      0.14434156	      0.93395508	      0.67071738	     -0.69548790	     -2.73350547	    -16.43233513	      9.47167776	      0.16531196	     24.80864556	     18.60458007	      0.00000000	      2.39803802	      1.97306922	      4.70336826	     12.91388324	      0.22538978	     19.85955404	    -13.91741244	      0.00000000	     -0.16981509	      0.04687142	     -0.56620315	     -0.31536360	      0.06233899	     -0.60159085	     -0.27898921	      0.11396318	     -0.60159085	     -0.19408167	      0.11396318	     -0.49542776	     -0.15769029	      0.09558021	     -0.46004006	     -0.09703234	      0.07260383	     -0.42465236	     -1.21297221	      0.53021891	     -3.14905207	      0.00000000	      0.00000000	     15.33341265	      9.82894271	      2.08309967	     36.76517101	     -3.62782925	    148.14299674	      0.67412627	      0.78087543	     32.22413577	    -23.58651221	     39.23392113	      0.61335909	    156.36403031	      0.21949598	      1.87363143	    -28.73986685	    -23.75575470
      3.49122807	     -1.89607986	     -4.80354386	     94.10079078	      0.14409749	      0.93310317	      0.67165639	     -0.27621583	     -2.53279276	    -16.31969975	      9.71208635	      0.16950788	     24.95533838	     18.63106784	      0.00000000	      2.71941689	      1.74023271	      4.66841824	     12.96573083	      0.22629469	     20.01767517	    -14.13564937	      0.00000000	     -0.14749648	      0.09104326	     -0.51416966	     -0.27391571	      0.12108754	     -0.54630526	     -0.24232196	      0.22136259	     -0.54630526	     -0.16857372	      0.22136259	     -0.44989845	     -0.13696523	      0.18565542	     -0.41776285	     -0.08427949	      0.14102601	     -0.38562725	     -1.05355259	      1.02989959	     -2.85965740	      0.00000000	      0.00000000	     15.55332067	      9.54706000	      3.14827545	     37.60482594	     -2.95981266	    147.62696226	      1.11416070	      0.79121038	     39.20275707	    -23.19573883	     40.61500674	      2.51142366	    156.89101251	      0.22479980	      1.68800234	    -26.42141462	    -23.98499471
      3.50877193	     -0.11568688	     -5.70320904	     93.75056480	      0.13743752	      0.92795050	      0.66963892	      0.80420701	     -1.16932062	    -15.97596121	      9.98279302	      0.17423261	     25.45012025	     18.72701514	      0.00000000	      3.78279335	      0.41444715	      5.15875421	     13.45335667	      0.23480537	     21.48845801	    -15.40920344	      0.00000000	     -0.07315327	      0.34548125	      0.56625516	     -0.13585293	      0.45949006	      0.60164611	     -0.12018350	      0.84000310	      0.60164611	     -0.08360687	      0.84000310	      0.49547327	     -0.06793012	      0.70450536	      0.46008232	     -0.04179978	      0.53515045	      0.42469137	     -0.52252648	      3.90815295	      3.14934133	      0.00000000	      0.00000000	     19.60488485	      7.10476673	     -1.77284391	     22.54623200	    -23.68043603	     46.82722066	     54.22200361	     58.85615980	     -1.65893057	     18.98970698	     42.75491434	      8.91901865	    157.81701604	      0.24370255	      1.48132585	    -14.19292364	    -24.11231149
